<svg xmlns="http://www.w3.org/2000/svg" width="48" height="48" fill="none" viewBox="0 0 48 48"><g clip-path="url(#a)"><path fill="url(#b)" d="M24 48c13.255 0 24-10.745 24-24S37.255 0 24 0 0 10.745 0 24s10.745 24 24 24"/><path fill="#fff" fill-rule="evenodd" d="M10.864 23.747q10.495-4.572 13.996-6.029c6.665-2.772 8.05-3.254 8.953-3.27.198-.003.642.046.93.28.242.197.31.463.341.65.032.186.072.612.04.944-.36 3.795-1.924 13.005-2.719 17.255-.336 1.799-.998 2.401-1.64 2.46-1.394.129-2.452-.92-3.802-1.805-2.112-1.385-3.305-2.247-5.356-3.598-2.37-1.562-.833-2.42.517-3.823.354-.366 6.494-5.952 6.613-6.459.015-.063.029-.3-.111-.424-.14-.125-.348-.082-.497-.048q-.318.072-10.124 6.69-1.436.989-2.602.962c-.857-.018-2.506-.484-3.731-.883-1.503-.488-2.698-.746-2.594-1.576q.082-.648 1.786-1.326" clip-rule="evenodd"/></g><defs><linearGradient id="b" x1="24" x2="24" y1="0" y2="47.644" gradientUnits="userSpaceOnUse"><stop stop-color="#2aabee"/><stop offset="1" stop-color="#229ed9"/></linearGradient><clipPath id="a"><path fill="#fff" d="M0 0h48v48H0z"/></clipPath></defs></svg>